<svg xmlns="http://www.w3.org/2000/svg" xmlns:xlink="http://www.w3.org/1999/xlink" width="500" zoomAndPan="magnify" viewBox="0 0 375 374.999991" height="500" preserveAspectRatio="xMidYMid meet" version="1.0"><defs><clipPath id="cbce94298b"><path d="M 0 3.472656 L 375 3.472656 L 375 372 L 0 372 Z M 0 3.472656 " clip-rule="nonzero"/></clipPath><clipPath id="1b354e62b2"><path d="M 187.5 3.472656 L 209.027344 118.75 L 289.582031 33.332031 L 245.832031 142.359375 L 359.722656 113.890625 L 263.890625 181.945312 L 375 220.140625 L 257.640625 225 L 330.554688 316.667969 L 229.167969 257.640625 L 240.972656 375 L 187.5 270.140625 L 134.027344 375 L 145.832031 257.640625 L 44.445312 316.667969 L 117.359375 225 L 0 220.140625 L 111.109375 181.945312 L 15.277344 113.890625 L 129.167969 142.359375 L 85.417969 33.332031 L 165.972656 118.75 Z M 187.5 3.472656 " clip-rule="nonzero"/></clipPath><clipPath id="920fae77d8"><path d="M 0 0.472656 L 375 0.472656 L 375 368.761719 L 0 368.761719 Z M 0 0.472656 " clip-rule="nonzero"/></clipPath><clipPath id="dbe538a94c"><path d="M 187.5 0.472656 L 209.027344 115.75 L 289.582031 30.332031 L 245.832031 139.359375 L 359.722656 110.890625 L 263.890625 178.945312 L 375 217.140625 L 257.640625 222 L 330.554688 313.667969 L 229.167969 254.640625 L 240.972656 372 L 187.5 267.140625 L 134.027344 372 L 145.832031 254.640625 L 44.445312 313.667969 L 117.359375 222 L 0 217.140625 L 111.109375 178.945312 L 15.277344 110.890625 L 129.167969 139.359375 L 85.417969 30.332031 L 165.972656 115.75 Z M 187.5 0.472656 " clip-rule="nonzero"/></clipPath><clipPath id="b7cf56cfab"><rect x="0" width="375" y="0" height="369"/></clipPath></defs><g clip-path="url(#cbce94298b)"><g clip-path="url(#1b354e62b2)"><g transform="matrix(1, 0, 0, 1, 0, 3)"><g clip-path="url(#b7cf56cfab)"><g clip-path="url(#920fae77d8)"><g clip-path="url(#dbe538a94c)"><path fill="#000000" d="M 0 0.472656 L 375.242188 0.472656 L 375.242188 368.527344 L 0 368.527344 Z M 0 0.472656 " fill-opacity="1" fill-rule="nonzero"/></g></g></g></g></g></g></svg>